
<svg width="294" height="294" viewBox="0 0 294 294" fill="none" xmlns="http://www.w3.org/2000/svg">
<path d="M146.938 103.689L81.1811 147.205L12.8164 101.861L146.938 13L281.059 101.861L212.695 147.205L146.938 103.689Z" fill="url(#paint0_linear)"/>
<path d="M81.1811 147.205L146.938 190.722L212.695 147.205L281.059 192.55L146.938 281.411L12.8164 192.55L81.1811 147.205Z" fill="url(#paint1_linear)"/>
<path d="M212.695 147.206L146.938 190.722L81.1812 147.206L146.938 103.689L212.695 147.206Z" fill="url(#paint2_linear)"/>
<path d="M281.059 101.861V192.55L212.695 147.205L281.059 101.861Z" fill="url(#paint3_linear)"/>
<path d="M12.8164 192.55V101.861L81.1811 147.205L12.8164 192.55Z" fill="url(#paint4_linear)"/>
<g style="mix-blend-mode:overlay" opacity="0.9">
<path d="M281.059 101.861V192.55L212.695 147.205L281.059 101.861Z" fill="url(#paint5_linear)"/>
</g>
<g style="mix-blend-mode:overlay" opacity="0.9">
<path d="M12.8164 192.55V101.861L81.1811 147.205L12.8164 192.55Z" fill="url(#paint6_linear)"/>
</g>
<g style="mix-blend-mode:overlay" opacity="0.9">
<path d="M281.059 101.861V192.55L212.695 147.205L281.059 101.861Z" fill="url(#paint7_linear)"/>
</g>
<g style="mix-blend-mode:overlay" opacity="0.9">
<path d="M12.8164 192.55V101.861L81.1811 147.205L12.8164 192.55Z" fill="url(#paint8_linear)"/>
</g>
<g style="mix-blend-mode:overlay" opacity="0.9">
<path d="M212.695 147.206L146.938 190.722L81.1812 147.206L146.938 103.689L212.695 147.206Z" fill="url(#paint9_linear)"/>
</g>
<g style="mix-blend-mode:overlay" opacity="0.9">
<path d="M146.938 281.411L12.8164 192.55L81.1811 147.205L146.938 190.722V281.411Z" fill="url(#paint10_linear)"/>
</g>
<g style="mix-blend-mode:overlay" opacity="0.9">
<path d="M146.938 190.722L212.695 147.205L281.059 192.55L146.938 281.411V190.722Z" fill="url(#paint11_linear)"/>
</g>
<g style="mix-blend-mode:overlay" opacity="0.9">
<path d="M146.938 103.689L81.1811 147.205L12.8164 101.861L146.938 13L281.059 101.861L212.695 147.205L146.938 103.689Z" fill="url(#paint12_linear)"/>
</g>
<path d="M146.993 99.3506L74.9202 146.999L0 97.3789L146.993 0L293.985 97.3789L219.065 146.999L146.993 99.3506Z" fill="url(#paint13_linear)"/>
<path d="M74.9202 147L146.993 194.649L219.065 147L293.985 196.621L146.993 294L0 196.73L74.9202 147Z" fill="url(#paint14_linear)"/>
<path d="M219.077 146.998L147.005 194.647L74.9326 146.998L147.005 99.3496L219.077 146.998Z" fill="url(#paint15_linear)"/>
<path d="M293.976 97.3763V196.727L219.056 146.997L293.976 97.3763Z" fill="url(#paint16_linear)"/>
<path d="M0 196.727V97.3763L74.9202 146.997L0 196.727Z" fill="url(#paint17_linear)"/>
<g opacity="0.9">
<path opacity="0.9" d="M294 97.3743V196.725L219.08 146.995L294 97.3743Z" fill="url(#paint18_linear)"/>
</g>
<g opacity="0.9">
<path opacity="0.9" d="M0 196.725V97.3743L74.9202 146.995L0 196.725Z" fill="url(#paint19_linear)"/>
</g>
<path d="M294 97.3743V196.725L219.08 146.995L294 97.3743Z" fill="url(#paint20_linear)"/>
<path d="M0 196.725V97.3743L74.9202 146.995L0 196.725Z" fill="url(#paint21_linear)"/>
<path d="M219.063 146.997L146.99 194.646L74.918 146.997L146.99 99.348L219.063 146.997Z" fill="url(#paint22_linear)"/>
<path d="M146.993 293.998L0 196.728L74.9202 147.108L146.993 194.757V293.998Z" fill="url(#paint23_linear)"/>
<path d="M146.994 194.649L219.066 147L293.987 196.621L146.994 294V194.649Z" fill="url(#paint24_linear)"/>
<path d="M146.993 99.3506L74.9202 146.999L0 97.3789L146.993 0L293.985 97.3789L219.065 146.999L146.993 99.3506Z" fill="url(#paint25_linear)"/>
<defs>
<linearGradient id="paint0_linear" x1="208.101" y1="270.42" x2="111.889" y2="-4.83146" gradientUnits="userSpaceOnUse">
<stop stop-color="#FF99A0"/>
<stop offset="0.2711" stop-color="#FF7494"/>
<stop offset="0.4904" stop-color="#943EFA"/>
<stop offset="0.7337" stop-color="#5C2CE3"/>
<stop offset="0.9997" stop-color="#361FCF"/>
</linearGradient>
<linearGradient id="paint1_linear" x1="179.153" y1="281.287" x2="82.9408" y2="6.03484" gradientUnits="userSpaceOnUse">
<stop stop-color="#FF99A0"/>
<stop offset="0.2711" stop-color="#FF7494"/>
<stop offset="0.4904" stop-color="#943EFA"/>
<stop offset="0.7337" stop-color="#5C2CE3"/>
<stop offset="0.9997" stop-color="#361FCF"/>
</linearGradient>
<linearGradient id="paint2_linear" x1="193.757" y1="276.214" x2="97.2765" y2="0.192134" gradientUnits="userSpaceOnUse">
<stop stop-color="#FF99A0"/>
<stop offset="0.2711" stop-color="#FF7494"/>
<stop offset="0.4904" stop-color="#943EFA"/>
<stop offset="0.7337" stop-color="#5C2CE3"/>
<stop offset="0.9997" stop-color="#361FCF"/>
</linearGradient>
<linearGradient id="paint3_linear" x1="289.439" y1="241.872" x2="192.958" y2="-34.1492" gradientUnits="userSpaceOnUse">
<stop stop-color="#FF99A0"/>
<stop offset="0.2711" stop-color="#FF7494"/>
<stop offset="0.4904" stop-color="#943EFA"/>
<stop offset="0.7337" stop-color="#5C2CE3"/>
<stop offset="0.9997" stop-color="#361FCF"/>
</linearGradient>
<linearGradient id="paint4_linear" x1="98.0756" y1="310.555" x2="1.5945" y2="34.5333" gradientUnits="userSpaceOnUse">
<stop stop-color="#FF99A0"/>
<stop offset="0.2711" stop-color="#FF7494"/>
<stop offset="0.4904" stop-color="#943EFA"/>
<stop offset="0.7337" stop-color="#5C2CE3"/>
<stop offset="0.9997" stop-color="#361FCF"/>
</linearGradient>
<linearGradient id="paint5_linear" x1="246.854" y1="109.304" x2="246.854" y2="278.6" gradientUnits="userSpaceOnUse">
<stop stop-color="white" stop-opacity="0"/>
<stop offset="0.9997" stop-color="white"/>
</linearGradient>
<linearGradient id="paint6_linear" x1="47.0166" y1="109.304" x2="47.0166" y2="278.6" gradientUnits="userSpaceOnUse">
<stop stop-color="white" stop-opacity="0"/>
<stop offset="0.9997" stop-color="white"/>
</linearGradient>
<linearGradient id="paint7_linear" x1="246.854" y1="109.304" x2="246.854" y2="278.6" gradientUnits="userSpaceOnUse">
<stop stop-color="white" stop-opacity="0"/>
<stop offset="0.9997" stop-color="white"/>
</linearGradient>
<linearGradient id="paint8_linear" x1="47.0166" y1="109.304" x2="47.0166" y2="278.6" gradientUnits="userSpaceOnUse">
<stop stop-color="white" stop-opacity="0"/>
<stop offset="0.9997" stop-color="white"/>
</linearGradient>
<linearGradient id="paint9_linear" x1="146.935" y1="184.54" x2="146.935" y2="59.1818" gradientUnits="userSpaceOnUse">
<stop stop-color="#361FCF" stop-opacity="0"/>
<stop offset="0.9994" stop-color="#361FCF"/>
</linearGradient>
<linearGradient id="paint10_linear" x1="69.9171" y1="182.715" x2="199.425" y2="302.335" gradientUnits="userSpaceOnUse">
<stop stop-color="white" stop-opacity="0"/>
<stop offset="0.9997" stop-color="white"/>
</linearGradient>
<linearGradient id="paint11_linear" x1="259.941" y1="163.261" x2="141.809" y2="241.255" gradientUnits="userSpaceOnUse">
<stop stop-color="white" stop-opacity="0"/>
<stop offset="0.9997" stop-color="white"/>
</linearGradient>
<linearGradient id="paint12_linear" x1="146.935" y1="6.52797" x2="146.935" y2="217.583" gradientUnits="userSpaceOnUse">
<stop stop-color="white" stop-opacity="0"/>
<stop offset="0.9997" stop-color="white"/>
</linearGradient>
<linearGradient id="paint13_linear" x1="231.4" y1="277.437" x2="106.457" y2="10.8516" gradientUnits="userSpaceOnUse">
<stop offset="0.0773715" stop-color="#B2F6FF"/>
<stop offset="0.3326" stop-color="#74E6ED"/>
<stop offset="0.7185" stop-color="#3639A4"/>
<stop offset="0.9997" stop-color="#3639A4"/>
</linearGradient>
<linearGradient id="paint14_linear" x1="193.23" y1="295.328" x2="68.287" y2="28.7418" gradientUnits="userSpaceOnUse">
<stop offset="0.0773715" stop-color="#B2F6FF"/>
<stop offset="0.3326" stop-color="#74E6ED"/>
<stop offset="0.7185" stop-color="#3639A4"/>
<stop offset="0.9997" stop-color="#3639A4"/>
</linearGradient>
<linearGradient id="paint15_linear" x1="212.327" y1="286.381" x2="87.3841" y2="19.7956" gradientUnits="userSpaceOnUse">
<stop offset="0.0773715" stop-color="#B2F6FF"/>
<stop offset="0.3326" stop-color="#74E6ED"/>
<stop offset="0.7185" stop-color="#3639A4"/>
<stop offset="0.9997" stop-color="#3639A4"/>
</linearGradient>
<linearGradient id="paint16_linear" x1="311.657" y1="239.816" x2="186.714" y2="-26.7701" gradientUnits="userSpaceOnUse">
<stop offset="0.0773715" stop-color="#B2F6FF"/>
<stop offset="0.3326" stop-color="#74E6ED"/>
<stop offset="0.7185" stop-color="#3639A4"/>
<stop offset="0.9997" stop-color="#3639A4"/>
</linearGradient>
<linearGradient id="paint17_linear" x1="112.964" y1="332.944" x2="-11.9792" y2="66.3576" gradientUnits="userSpaceOnUse">
<stop offset="0.0773715" stop-color="#B2F6FF"/>
<stop offset="0.3326" stop-color="#74E6ED"/>
<stop offset="0.7185" stop-color="#3639A4"/>
<stop offset="0.9997" stop-color="#3639A4"/>
</linearGradient>
<linearGradient id="paint18_linear" x1="256.547" y1="105.484" x2="256.547" y2="290.927" gradientUnits="userSpaceOnUse">
<stop stop-color="white" stop-opacity="0"/>
<stop offset="0.9997" stop-color="white"/>
</linearGradient>
<linearGradient id="paint19_linear" x1="37.4641" y1="105.484" x2="37.4641" y2="290.927" gradientUnits="userSpaceOnUse">
<stop stop-color="white" stop-opacity="0"/>
<stop offset="0.9997" stop-color="white"/>
</linearGradient>
<linearGradient id="paint20_linear" x1="256.547" y1="105.484" x2="256.547" y2="290.927" gradientUnits="userSpaceOnUse">
<stop stop-color="white" stop-opacity="0"/>
<stop offset="0.9997" stop-color="white"/>
</linearGradient>
<linearGradient id="paint21_linear" x1="37.4641" y1="105.484" x2="37.4641" y2="290.927" gradientUnits="userSpaceOnUse">
<stop stop-color="white" stop-opacity="0"/>
<stop offset="0.9997" stop-color="white"/>
</linearGradient>
<linearGradient id="paint22_linear" x1="146.996" y1="91.5382" x2="146.996" y2="205.269" gradientUnits="userSpaceOnUse">
<stop stop-color="white" stop-opacity="0"/>
<stop offset="0.9997" stop-color="white"/>
</linearGradient>
<linearGradient id="paint23_linear" x1="62.7412" y1="185.729" x2="204.608" y2="316.839" gradientUnits="userSpaceOnUse">
<stop stop-color="white" stop-opacity="0"/>
<stop offset="0.9997" stop-color="white"/>
</linearGradient>
<linearGradient id="paint24_linear" x1="269.885" y1="163.129" x2="140.457" y2="248.631" gradientUnits="userSpaceOnUse">
<stop stop-color="white" stop-opacity="0"/>
<stop offset="0.9997" stop-color="white"/>
</linearGradient>
<linearGradient id="paint25_linear" x1="146.999" y1="0" x2="146.999" y2="190.944" gradientUnits="userSpaceOnUse">
<stop stop-color="white" stop-opacity="0"/>
<stop offset="0.9997" stop-color="white"/>
</linearGradient>
</defs>
</svg>
